<?xml version="1.0" encoding="utf-8"?>
<svg version="1.2" baseProfile="tiny-ps"
     xmlns="http://www.w3.org/2000/svg"
     width="1300" height="1300">
    <title>Cico Jazz Orchester</title>
    <path fill="#fff" stroke="#000" d="M-1-1h1302v1302H-1z"/>
    <path fill="#676767"
          d="M1027.926 377.177c-4.884 6.26-9.714 12.593-15.248 18.235-19.185 19.555-40.436 36.42-67.203 44.107-14.137 4.06-28.94 5.813-43.453 8.546-4.567.86-9.171 1.52-14.26 1.815-.87-1.008-1.174-1.618-1.614-2.105-76.386-84.702-171.548-121.288-284.07-103.786-107.984 16.797-185.326 78.044-233.318 176.15-3.92 8.014-6.541 16.664-9.766 25.02-12.014 2.296-24.002 4.74-36.047 6.864-39.42 6.95-78.86 13.788-118.293 20.661-4.09.713-8.188 1.378-12.681 1.924 13.132-82.197 46.208-155.532 99.05-219.646 61.39-74.486 138.32-126.61 231.518-151.964 146.604-39.882 282.447-15.151 405.929 73.907 36.446 26.285 67.596 58.192 94.585 94.132 1.497 1.993 3.067 3.932 4.871 6.14m-515.32-56.126c7.26-2.928 14.575-5.735 21.758-8.844 2.951-1.276 4.74-.768 6.768 1.735 4.404 5.43 9.296 10.463 13.733 15.87 2.885 3.515 6.249 4.117 10.252 2.762a61 61 0 0 0 5.572-2.209c6.351-2.87 7.3-6.401 2.74-11.543-24.427-27.547-48.958-55.001-73.392-82.543-2.797-3.153-6.062-4.267-9.82-2.7-5.349 2.233-12.06 2.54-14.489 9.306-.324.903-.284 1.975-.249 2.963.743 20.8 1.538 41.598 2.262 62.399.551 15.812.848 31.636 1.686 47.432.145 2.727 1.754 6.707 3.856 7.747 6.013 2.977 16.655-5.206 16.312-11.926-.178-3.492-.446-6.98-.572-10.474-.166-4.634-1.992-10.476.134-13.583 2.302-3.365 8.33-4.18 13.448-6.392m86.226-17.64c-.868 4.312-2.385 8.615-2.445 12.938-.08 5.773 3.24 8.53 8.936 8.289 21.452-.913 42.9-1.906 64.346-2.951 5.888-.287 7.489-2.67 7.154-10.005-.275-6.023-2.556-8.548-8.049-8.363-8.815.297-17.618.941-26.434 1.203-6.762.202-13.535.04-20.824.04.561-1.294 1.003-2.658 1.703-3.873 14.376-24.962 28.714-49.948 43.242-74.822 2.833-4.85 3.971-9.787 3.31-15.27-.61-5.051-3.168-7.78-8.13-7.58-20.955.846-41.9 1.892-62.85 2.864-3.638.168-5.426 2.331-5.748 5.708a27.9 27.9 0 0 0 .134 6.472c.566 4.017 2.782 6.245 7.13 5.96 4.65-.304 9.309-.593 13.966-.637 10.082-.095 20.167-.029 30.604-.029a92568 92568 0 0 0-46.045 80.056m175.023 35.892c.474-1.06 1.048-2.089 1.407-3.187 2.608-7.982 1.026-10.84-7.136-12.934-7.093-1.82-14.203-3.578-21.288-5.427-7.303-1.905-14.586-3.886-22.51-6.003 1.34-1.535 2.01-2.457 2.829-3.218 21.33-19.841 42.781-39.554 63.904-59.613 3.191-3.03 5.621-7.4 7.067-11.61 2.431-7.075.303-10.218-6.85-12.08a16946 16946 0 0 0-57.046-14.747c-6.03-1.548-8.596.193-10.283 6.744-1.736 6.743-.528 9.297 5.546 10.916 12.062 3.214 24.163 6.286 36.242 9.438 1.834.479 3.638 1.073 7.2 2.133-2.52 1.954-4.034 2.95-5.342 4.169-21.313 19.859-42.714 39.626-63.766 59.759-3.029 2.896-4.98 7.378-6.302 11.488-1.773 5.515.53 8.935 6.249 10.436 20.767 5.453 41.544 10.875 62.393 15.998 2.142.526 4.795-1.029 7.686-2.262m-323.678 14.014c-16.059-21.466-32.096-42.948-48.222-64.363-1.144-1.52-2.856-3.503-4.443-3.638-5.943-.505-9.8 3.567-13.264 7.597-2.972 3.456-.493 6.45 1.666 9.328 15.685 20.913 31.416 41.79 46.972 62.798 8.994 12.145 7.13 16.601-7.489 20.023-1.965.46-4.563 2.664-4.973 4.486-1.196 5.326 7.712 13.432 13.259 12.613 20.827-3.074 31.11-23.187 21.176-41.505-1.266-2.335-2.832-4.507-4.682-7.34"/>
    <path fill="#686868"
          d="M185.876 619.406c13.626-3.11 27.318-5.823 41.033-8.418 12.748-2.412 25.519-4.707 38.285-7.023.786-.142 1.62-.018 3.09-.018-.724 1.478-1.098 2.692-1.819 3.645-17.036 22.544-26.406 48-28.575 76.08-2.72 35.196.969 69.678 15.154 102.202 17.499 40.12 48.142 62.947 92.31 67.116 18.56 1.751 36.445-1.967 54.507-4.727 3.946-.603 7.89-1.232 12.268-1.36 10.485 11.101 19.805 22.538 30.705 32.193 71.445 63.286 154.996 88.907 249.494 77.23 59.502-7.352 112.324-31.29 158.137-69.99 51.045-43.12 84.733-97.314 101.36-162.055.453-1.767.101-3.742.125-5.62 26.197-25.629 34.645-59.052 40.909-93.398 1.55-8.499 2.891-17.05 3.876-25.63.385-3.354 1.676-4.066 4.707-4.02 15.602.24 29.71 5.417 42.956 13.119 26.606 15.468 47.828 36.896 66.622 60.944 1.229 1.572 2.536 3.082 3.91 4.953-1.482 36.295-7.324 71.6-17.948 105.95-40.446 130.778-122.225 226.749-244.704 287.613-52.964 26.319-109.436 40.913-168.498 44.648-121.897 7.708-231.129-26.07-326.178-102.792-78.228-63.145-130.208-144.044-156.548-241.185-11.719-43.221-16.596-87.3-15.58-132.048.129-5.654.316-11.307.401-17.41m250.37 318.04c1.31-5.466 3.319-10.87 3.808-16.408 2.224-25.145-23.774-48.871-42.238-53.276-7.592-1.811-15.168-2.173-22.709-.14-20.431 5.506-34.721 19.193-46.375 35.916-14.908 21.393-13.496 41.958 3.599 61.566 17.908 20.542 41.432 26.066 63.628 14.32 17.702-9.369 31.039-23.281 40.288-41.978m45.734 123.894c.688-2.369 1.818-4.706 1.991-7.112 1.22-16.967 5.975-33.789 2.112-50.158 6.146-2.04 12.482-2.997 17.575-6.036 20.293-12.112 20.708-39.863.513-53.922-10.19-7.095-21.577-12.51-32.592-18.366-4.316-2.295-8.1-.814-10.702 3.32-1.24 1.97-2.303 4.054-3.402 6.109-15 28.041-29.989 56.088-44.988 84.13-3.186 5.956-2.58 8.315 3.223 11.793a36 36 0 0 0 4.902 2.467c5.016 2.035 7.098 1.264 9.71-3.594 5.912-11 11.773-22.026 17.678-33.029.83-1.547 1.793-3.022 2.64-4.439 13.232 5.08 17.232 10.601 16.373 23.889-.686 10.618-2.125 21.193-3.412 31.765-1.133 9.305 8.905 17.159 18.38 13.183m544.163-342.167c-17.236-18.067-41.862-14.854-53.611 7.129-1.945 3.639-3.287 7.655-4.492 11.623-2.325 7.649-4.342 15.39-6.506 23.087-2.413 8.582-.6 11.833 8.102 14.253 31.454 8.746 62.915 17.47 94.374 26.198 8.014 2.223 9.856 1.213 12.189-6.825.506-1.746.793-3.573 1.011-5.383.445-3.694-1.12-6.064-4.798-7.028-4.35-1.14-8.682-2.35-13.014-3.562-9.582-2.681-19.159-5.382-28.6-8.036.677-13.186 6.63-19.77 19.71-21.63 9.396-1.336 18.862-2.187 28.31-3.128 11.05-1.1 12.479-2.336 14.49-13.22 1.156-6.255-1.12-9.423-7.247-8.553-17.68 2.51-36.002 1.569-52.47 9.411-2.373-4.681-4.68-9.231-7.448-14.336m-366.781 306.4h-5.521c-.264-2.836-.532-5.137-.685-7.446-.726-10.964-1.515-21.926-2.081-32.9-.222-4.301-2.203-6.48-6.427-6.604-2.16-.063-4.34-.072-6.483.159-6.738.727-8.191 2.683-7.735 9.462q3.39 50.335 6.667 100.677c.528 8.12 2.344 9.866 10.459 9.375 1.657-.1 3.32-.333 4.948-.662 3.763-.76 5.828-2.795 5.481-6.968-.606-7.3-1.022-14.615-1.486-21.926-.501-7.905-.965-15.814-1.47-24.111l45.547-2.947c.22 2.089.417 3.542.518 5.001.934 13.454 1.971 26.903 2.705 40.368.251 4.607 2.347 6.746 6.762 6.781 2.49.02 5.004-.05 7.47-.367 4.495-.578 6.608-2.949 6.28-7.806-2.311-34.222-4.429-68.457-6.712-102.68-.524-7.85-2.405-9.289-10.424-8.868-1.325.07-2.64.326-3.96.498-4.547.595-6.742 2.896-6.323 7.754.742 8.624 1.221 17.271 1.742 25.913.286 4.746.432 9.5.655 14.554-13.488.936-26.258 1.821-39.927 2.743m287.25-230.739c-6.419 11.297-12.832 22.597-19.26 33.888-4.29 7.534-3.36 10.987 4.246 15.446 2.586 1.516 5.215 2.96 7.82 4.444 25.622 14.589 51.228 29.206 76.876 43.749 6.26 3.548 10.132 2.73 13.486-3.06 8.769-15.133 17.474-30.307 25.855-45.655.995-1.821.732-5.5-.503-7.165-5.446-7.347-12.344-6.745-16.785 1.026-.662 1.157-1.29 2.333-1.952 3.49-5.524 9.652-11.051 19.302-16.82 29.378l-30.041-17.128c.907-1.77 1.528-3.093 2.246-4.361 4.349-7.684 8.75-15.337 13.073-23.035 3.702-6.595 3.04-9.32-2.918-12.662-6.046-3.392-8.9-2.558-12.496 3.7-3.652 6.356-7.257 12.737-10.917 19.087-1.547 2.684-3.183 5.315-4.928 8.218-7.553-4.304-14.534-8.52-21.749-12.289-3.445-1.8-3.552-3.46-1.716-6.576 6.003-10.189 11.815-20.493 17.554-30.834 2.454-4.422 1.127-7.416-4.153-10.43-5.692-3.25-8.866-2.893-11.577 1.466-1.758 2.827-3.326 5.772-5.34 9.303m-201.53 223.39c6.286 18.273 12.53 36.56 18.88 54.811 2.182 6.276 5.603 8.446 11.375 6.54a2057 2057 0 0 0 50.548-17.441c1.76-.633 3.741-3.11 4.025-4.974 1.364-8.947-4.88-13.939-13.232-10.957-.627.224-1.244.48-1.874.695-11.145 3.807-22.29 7.61-33.949 11.588l-11.247-32.763c2.212-.84 3.874-1.523 5.57-2.106 8.508-2.925 17.035-5.794 25.534-8.743 5.574-1.934 6.779-4.835 4.691-10.95-2.085-6.108-4.953-7.811-10.334-5.986-8.361 2.835-16.692 5.76-25.049 8.612-1.982.676-4.012 1.208-6.34 1.901-2.801-8.11-5.255-15.705-8.075-23.16-1.33-3.518-.99-5.252 2.98-6.506 10.8-3.41 21.456-7.269 32.162-10.97 5.97-2.065 7.204-4.816 5.066-11.155-2.19-6.497-4.818-8.061-10.671-6.078a7137 7137 0 0 0-46.811 16.025c-7.255 2.515-8.879 6.058-6.331 13.531 4.246 12.456 8.565 24.888 13.082 38.085m119.401-53.556c-2.147.259-4.29.691-6.442.745-7.1.178-14.411 1.324-21.258.047-9.585-1.79-12.894-13.573-5.823-20.247 3.93-3.709 9.36-6.152 14.512-8.128 3.593-1.379 7.866-.965 11.828-1.411 3.412-.385 5.772-1.952 5.337-5.78-.849-7.464-7.548-12.823-15.056-11.986-11.48 1.281-21.535 5.914-29.693 14.037-9.417 9.377-13.708 20.549-8.91 33.654 4.843 13.227 14.378 21.027 28.655 22.073 5.11.374 10.302-.14 15.442-.476 6.136-.402 12.247-1.27 18.386-1.53 6.99-.296 12.223 2.614 14.92 9.402 2.324 5.85 1.095 12.687-4.671 17.058-4.789 3.63-10.44 6.473-16.13 8.45-4.428 1.538-9.504 1.21-14.294 1.703-3.493.36-6.257 1.616-6.172 5.71.128 6.148 6.892 12.962 13.133 12.665 19.234-.913 34.757-9.043 44.913-25.572 12.991-21.145-2.357-49.58-25.326-50.635-4.134-.19-8.29.091-13.35.221m-296.71 3.233c-13.882 1.038-25.18 7.117-34.014 17.746-11.648 14.015-16.483 30.63-17.778 48.435-.891 12.258 1.128 23.979 8.331 34.28 11.848 16.944 37.937 25.088 59.224 18.65 8.579-2.594 11.397-6.169 11.873-15.057.246-4.607-2.38-6.89-6.9-5.728-3.058.787-5.981 2.08-9.023 2.94-23.543 6.648-42.19-7.578-41.637-31.892.273-12.024 3.277-23.44 9.383-33.837 11.492-19.567 32.914-22.375 49.343-6.608 2.16 2.073 4.044 4.438 6.24 6.469 3.426 3.166 6.674 2.539 8.97-1.543 3.68-6.538 2.986-12.994-2.304-18.255-11.265-11.205-25.085-15.923-41.708-15.6m310.081-53.76 16.765-15.88c.493.433 1.38 1.15 2.2 1.94 21.222 20.461 42.426 40.941 63.663 61.386 4.554 4.384 6.823 4.456 11.51.388 1.62-1.408 3.008-3.101 4.406-4.746 3.026-3.56 2.646-6.706-.783-9.987-21.296-20.383-42.5-40.863-63.72-61.324-1.052-1.014-1.976-2.16-3.302-3.621 6.299-6.518 12.512-12.745 18.445-19.23 1.43-1.562 3.268-4.864 2.62-5.836-2.377-3.571-5.307-7.109-8.821-9.492-3.31-2.245-5.734 1.244-7.892 3.473a26724 26724 0 0 0-50.672 52.485c-4.098 4.256-4.116 6.779-.343 11.188 5.536 6.468 8.926 6.416 15.924-.744z"/>
    <path fill="#FEFEFE"
          d="M951.646 720.063c.28 1.726.632 3.7.178 5.468-16.626 64.741-50.314 118.936-101.359 162.055-45.813 38.7-98.635 62.638-158.137 69.99-94.498 11.677-178.049-13.944-249.494-77.23-10.9-9.655-20.22-21.092-30.307-32.076 20.311-3.792 40.66-7.211 61.361-10.69.222 1.425.427 2.502.551 3.588.635 5.56 2.912 7.352 8.28 6.348a857775 857775 0 0 0 181.749-34.008q44.454-8.321 88.905-16.66c6.877-1.29 8.615-2.975 8.75-9.789.067-3.356 1.919-3.638 4.358-4.09a75047 75047 0 0 0 107.588-20.07c28.505-5.336 52.966-18.446 73.772-38.524 1.297-1.251 2.34-2.768 3.805-4.312"/>
    <path fill="#FDFDFD"
          d="M359.417 545.139c2.802-8.336 5.422-16.986 9.343-25 47.992-98.106 125.334-159.353 233.318-176.15 112.522-17.502 207.684 19.084 284.07 103.786.44.487.744 1.097 1.21 2.005-27.777 5.318-55.65 10.289-83.528 15.237-15.4 2.733-30.806 5.429-46.63 8.215l-.423-7.198c-.362-6.166-2.524-7.892-8.687-6.79-9.171 1.64-18.33 3.342-28.574 5.215v-16.624c-.003-11.014-.004-11.013 11.114-13.054 4.26-.782 8.495-1.758 12.784-2.294 2.991-.374 3.807-1.73 3.708-4.592-.234-6.824-.09-13.66-.258-20.486-.125-5.12-2.687-7.299-7.727-6.4-23.12 4.125-46.227 8.333-69.328 12.568-4.32.792-6.656 3.343-6.606 7.967.088 8.257.024 16.516.024 25.41l27.897-4.972v27.62l-64.203 11.674c0-6.488.003-12.532 0-18.575-.006-9.236-.002-9.207 9.106-10.771 5.089-.874 10.214-1.645 15.199-2.942 1.33-.346 3.094-2.428 3.134-3.76.221-7.318.09-14.654-.167-21.976-.145-4.127-2.94-6.27-7.077-5.532-23.286 4.15-46.56 8.363-69.828 12.613-4.312.788-6.669 3.31-6.615 7.953.098 8.275.028 16.553.028 25.4l28.22-4.97c0 8.789.09 17.053-.118 25.31-.025.964-1.562 2.538-2.604 2.734-20.45 3.841-40.929 7.52-62.425 11.418 0-8.93-.086-17.49.146-26.04.02-.772 2.009-1.91 3.23-2.16 6.853-1.402 13.727-2.735 20.642-3.771 2.989-.448 3.856-1.76 3.74-4.608-.286-6.987-.253-13.986-.519-20.974-.183-4.823-2.72-6.764-7.525-5.9a29162 29162 0 0 0-68.84 12.461c-5.271.961-7.261 3.738-7.177 9.015.126 7.94.033 15.884.033 24.473l28.378-5.038c0 8.81.13 17.076-.163 25.327-.037 1.035-2.177 2.597-3.556 2.884-7.825 1.627-15.712 2.96-23.584 4.354-8.407 1.49-9.565 2.867-9.502 11.475.013 1.807.002 3.615.002 5.97-36.523 6.51-72.881 12.992-109.662 19.493"/>
    <path fill="#FCFCFC"
          d="M962.091 524.966c15.454 32.842 17.937 66.97 12.44 101.919-4.539 28.861-14.68 55.558-35.245 76.939-30.065 31.256-67.008 44.253-109.83 36.32-31.044-5.751-51.435-26.077-64.38-54.042-12.535-27.081-14.625-55.825-11.641-85.083 2.426-23.789 9.092-46.35 20.956-67.243 23.461-41.316 73.99-66.48 121.078-59.613 31.204 4.55 52.334 23.072 66.622 50.803m-150.286 29.386c-10.75 20.683-15.418 42.88-15.482 65.986-.053 19.373 3.438 38.146 13.104 55.285 12.549 22.249 32.556 31.42 57.636 26.79 20.314-3.75 34.352-16.157 44.933-32.947 14.446-22.921 20.315-48.292 20.027-75.185-.21-19.572-3.716-38.465-13.231-55.803-8.41-15.324-21.155-24.602-38.922-26.039-9.92-.802-19.653.448-28.95 4.063-18.04 7.017-29.868 20.612-39.115 37.85M555.352 637.442c7.004-46.61 29.401-82.787 69.514-107.345 15.811-9.681 33.16-15.459 51.34-18.816 20.481-3.781 40.963-7.557 61.45-11.307 7.194-1.316 8.76-.018 8.78 7.162.019 6.833.01 13.666.002 20.5-.01 7.81-1.327 9.454-9.159 11.018a14710 14710 0 0 1-56.386 11.16c-43.73 8.553-72.568 37.496-80.697 81.295-4.19 22.576-2.723 44.842 4.908 66.542 11.561 32.88 36.733 47.7 71.12 41.769 19.702-3.398 39.32-7.279 58.976-10.938 1.474-.275 2.946-.581 4.433-.765 4.715-.584 6.665.912 6.774 5.533.192 8.16.22 16.325.29 24.488.037 4.413-1.41 8.272-6.105 9.103-26.237 4.644-52.359 10.83-78.813 13.15-45.843 4.022-81.722-20.211-97.9-63.356-9.556-25.483-11.696-51.85-8.527-79.193M327.528 827.539c-30.883-11.379-49.765-33.827-58.753-64.123-16.648-56.112-9.291-108.29 29.852-153.628 22.942-26.574 53.04-40.622 87.285-46.572 19.692-3.421 39.317-7.22 58.974-10.838 6.44-1.185 8.322.314 8.363 6.756q.07 10.996-.001 21.993c-.04 6.324-1.985 8.614-8.23 9.85-19.606 3.881-39.237 7.638-58.816 11.65-42.934 8.797-68.818 35.234-78.435 77.505-6.159 27.068-4.04 53.803 7.993 79.075 12.282 25.791 34.474 37.498 63.089 33.163 21.727-3.292 43.28-7.74 64.902-11.715 8.028-1.475 9.499-.308 9.508 7.89.009 7.498-.02 14.995.006 22.493.017 4.645-2.076 7.708-6.71 8.542-24.092 4.339-48.133 9.032-72.325 12.729-15.653 2.392-31.25.506-46.702-4.77"/>
    <path fill="#FDFDFD"
          d="M484.552 640c0-28.145-.005-55.789.002-83.433.001-7.66 1.35-9.343 8.746-10.785 8.496-1.655 16.988-3.345 25.512-4.843 6.222-1.092 8.045.452 8.046 6.603q.025 125.647 0 251.296c0 6.11-1.842 8.358-7.886 9.56-8.654 1.722-17.332 3.319-26.002 4.96-6.816 1.289-8.411-.012-8.413-6.993-.011-44.963-.006-89.927-.005-134.89z"/>
    <path fill="#FBFBFB"
          d="M512.247 321.193c-4.76 2.07-10.788 2.885-13.09 6.25-2.126 3.107-.3 8.949-.134 13.583.126 3.494.394 6.982.572 10.474.343 6.72-10.299 14.903-16.312 11.926-2.102-1.04-3.711-5.02-3.856-7.747-.838-15.796-1.135-31.62-1.686-47.432-.724-20.8-1.519-41.6-2.262-62.4-.035-.987-.075-2.059.249-2.962 2.43-6.767 9.14-7.073 14.489-9.305 3.758-1.568 7.023-.454 9.82 2.699 24.434 27.542 48.965 54.996 73.392 82.543 4.56 5.142 3.611 8.673-2.74 11.543a61 61 0 0 1-5.572 2.209c-4.004 1.355-7.367.753-10.252-2.763-4.437-5.406-9.329-10.439-13.733-15.87-2.029-2.502-3.817-3.01-6.768-1.734-7.183 3.109-14.497 5.916-22.117 8.986m-16.202-30.72 1.091 17.777 29.119-11.678-30.33-34.597-1.13.712c.412 8.937.824 17.874 1.25 27.786M599.006 303.075c15.5-26.96 30.826-53.584 45.87-79.72-10.437 0-20.522-.066-30.604.03-4.657.043-9.316.332-13.966.637-4.348.284-6.564-1.944-7.13-5.961a27.9 27.9 0 0 1-.134-6.472c.322-3.377 2.11-5.54 5.748-5.709 20.95-.971 41.895-2.017 62.85-2.863 4.962-.2 7.52 2.529 8.13 7.58.661 5.483-.477 10.42-3.31 15.27-14.528 24.874-28.866 49.86-43.242 74.822-.7 1.215-1.142 2.58-1.703 3.874 7.289 0 14.062.16 20.824-.04 8.816-.263 17.62-.907 26.434-1.204 5.493-.185 7.774 2.34 8.049 8.362.335 7.335-1.266 9.719-7.154 10.006a10449 10449 0 0 1-64.346 2.95c-5.695.243-9.016-2.515-8.936-8.288.06-4.323 1.577-8.626 2.62-13.274M773.617 339.625c-2.654.911-5.307 2.466-7.449 1.94-20.85-5.123-41.626-10.545-62.393-15.998-5.718-1.501-8.022-4.921-6.249-10.436 1.322-4.11 3.273-8.592 6.302-11.488 21.052-20.133 42.453-39.9 63.766-59.76 1.308-1.217 2.822-2.214 5.342-4.168-3.562-1.06-5.366-1.654-7.2-2.133-12.08-3.152-24.18-6.224-36.242-9.438-6.074-1.619-7.282-4.173-5.546-10.916 1.687-6.551 4.252-8.292 10.283-6.744q28.536 7.324 57.046 14.747c7.152 1.862 9.281 5.005 6.85 12.08-1.446 4.21-3.876 8.58-7.067 11.61-21.123 20.06-42.574 39.772-63.904 59.613-.819.761-1.488 1.683-2.829 3.218 7.924 2.117 15.207 4.098 22.51 6.003 7.085 1.849 14.195 3.607 21.288 5.427 8.162 2.094 9.744 4.952 7.136 12.934-.359 1.098-.933 2.127-1.644 3.51M450.388 353.61c1.638 2.54 3.204 4.711 4.47 7.046 9.934 18.318-.349 38.431-21.176 41.505-5.547.819-14.455-7.287-13.259-12.613.41-1.822 3.008-4.026 4.973-4.486 14.619-3.422 16.483-7.878 7.49-20.023-15.557-21.007-31.288-41.885-46.973-62.798-2.159-2.878-4.638-5.872-1.666-9.328 3.464-4.03 7.32-8.102 13.264-7.597 1.587.135 3.3 2.119 4.443 3.638 16.126 21.415 32.163 42.897 48.434 64.655M436.108 939.05c-9.111 18.342-22.448 32.254-40.15 41.623-22.196 11.746-45.72 6.222-63.628-14.32-17.095-19.608-18.507-40.173-3.599-61.566 11.654-16.723 25.944-30.41 46.375-35.917 7.54-2.032 15.117-1.67 22.709.14 18.464 4.406 44.462 28.132 42.238 53.277-.49 5.538-2.498 10.942-3.945 16.763m-68.078 27.367c4.858-.859 10.183-.726 14.489-2.754 15.598-7.349 26.995-19.32 34.479-34.79 3.587-7.416 3.79-15.387-.4-22.638-10.536-18.236-28.158-24.574-46.876-12.295-9.886 6.486-17.927 14.901-24.302 24.828-12.808 19.945-1.787 43.885 22.61 47.649M481.695 1062.89c-9.19 3.675-19.227-4.179-18.094-13.484 1.287-10.572 2.726-21.147 3.412-31.765.859-13.288-3.141-18.808-16.374-23.889-.846 1.417-1.809 2.892-2.64 4.44-5.904 11.002-11.765 22.029-17.677 33.028-2.612 4.858-4.694 5.63-9.71 3.594a36 36 0 0 1-4.902-2.467c-5.803-3.478-6.41-5.837-3.223-11.794 15-28.041 29.988-56.088 44.988-84.13 1.1-2.054 2.162-4.138 3.402-6.108 2.603-4.134 6.386-5.615 10.702-3.32 11.015 5.855 22.401 11.27 32.592 18.366 20.195 14.06 19.78 41.81-.513 53.922-5.093 3.04-11.43 3.996-17.575 6.036 3.863 16.369-.892 33.191-2.112 50.158-.173 2.406-1.303 4.743-2.276 7.414m5.158-107.313-12.514-6.713c-4.554 8.533-8.862 16.579-13.136 24.642-.608 1.146-1.049 2.38-2.077 4.746 6.928 2.852 13.436 6.096 20.297 8.173 5.322 1.612 10.14-.743 13.695-5.123 7.616-9.383 5.727-17.81-6.265-25.725M1026.376 720.7c2.537 4.827 4.843 9.377 7.215 14.058 16.47-7.842 34.79-6.901 52.471-9.411 6.127-.87 8.403 2.298 7.247 8.553-2.011 10.884-3.44 12.12-14.49 13.22-9.448.941-18.914 1.792-28.31 3.128-13.08 1.86-19.033 8.444-19.71 21.63 9.441 2.654 19.018 5.355 28.6 8.036 4.332 1.211 8.664 2.422 13.014 3.562 3.678.964 5.243 3.334 4.798 7.028-.218 1.81-.505 3.637-1.011 5.383-2.333 8.038-4.175 9.048-12.189 6.825-31.46-8.727-62.92-17.452-94.374-26.198-8.703-2.42-10.515-5.671-8.102-14.253 2.164-7.697 4.181-15.438 6.506-23.087 1.205-3.968 2.547-7.984 4.492-11.623 11.749-21.983 36.375-25.196 53.843-6.852m-41.187 24.117c-.964 3.362-2.135 6.685-2.78 10.107-.226 1.202.555 3.596 1.36 3.838 9.499 2.857 19.09 5.41 29.666 8.319 1.339-7.468 3.146-14.243 3.617-21.11.47-6.863-3.492-11.535-9.997-13.957-10.255-3.818-17.056-.044-21.866 12.803M659.812 1026.804c13.22-.904 25.99-1.79 39.478-2.725-.223-5.054-.369-9.808-.655-14.554-.52-8.642-1-17.29-1.742-25.913-.419-4.858 1.776-7.159 6.323-7.754 1.32-.172 2.635-.429 3.96-.498 8.02-.42 9.9 1.019 10.424 8.867 2.283 34.224 4.4 68.459 6.712 102.68.328 4.858-1.785 7.229-6.28 7.807-2.466.318-4.98.387-7.47.367-4.415-.035-6.51-2.174-6.762-6.781-.734-13.465-1.771-26.914-2.705-40.368-.1-1.46-.299-2.912-.518-5-15.136.978-30.002 1.94-45.546 2.946.504 8.297.968 16.206 1.47 24.111.463 7.311.879 14.627 1.485 21.926.347 4.173-1.718 6.208-5.481 6.968-1.629.33-3.29.562-4.948.662-8.115.49-9.931-1.255-10.46-9.375-2.182-33.562-4.407-67.12-6.666-100.677-.456-6.779.997-8.735 7.735-9.462 2.143-.231 4.324-.222 6.483-.16 4.224.125 6.205 2.304 6.427 6.606.566 10.973 1.355 21.935 2.081 32.9.153 2.308.42 4.609.685 7.445 2.003 0 3.762 0 5.97-.018M946.795 795.764c1.833-3.212 3.401-6.157 5.16-8.984 2.71-4.359 5.884-4.715 11.576-1.466 5.28 3.014 6.607 6.008 4.153 10.43-5.74 10.341-11.55 20.645-17.554 30.834-1.836 3.116-1.73 4.777 1.716 6.576 7.215 3.768 14.196 7.985 21.75 12.29 1.744-2.904 3.38-5.535 4.927-8.219 3.66-6.35 7.265-12.731 10.917-19.087 3.596-6.258 6.45-7.092 12.496-3.7 5.959 3.342 6.62 6.067 2.918 12.662-4.323 7.698-8.724 15.351-13.073 23.035-.718 1.268-1.339 2.592-2.246 4.361l30.04 17.128c5.77-10.076 11.297-19.726 16.82-29.379.663-1.156 1.291-2.332 1.953-3.489 4.441-7.77 11.34-8.373 16.785-1.026 1.235 1.665 1.498 5.344.503 7.165-8.381 15.348-17.086 30.522-25.855 45.656-3.354 5.788-7.227 6.607-13.486 3.059-25.648-14.543-51.254-29.16-76.876-43.749-2.605-1.483-5.234-2.928-7.82-4.444-7.605-4.46-8.535-7.912-4.246-15.446 6.428-11.291 12.841-22.591 19.442-34.207M744.97 1019.094c-4.403-12.82-8.722-25.25-12.968-37.707-2.548-7.473-.924-11.016 6.33-13.531a7137 7137 0 0 1 46.812-16.025c5.853-1.983 8.48-.419 10.671 6.078 2.138 6.339.904 9.09-5.066 11.154-10.706 3.702-21.363 7.561-32.161 10.97-3.972 1.255-4.311 2.99-2.98 6.506 2.82 7.456 5.273 15.051 8.074 23.161 2.328-.693 4.358-1.225 6.34-1.9 8.357-2.852 16.688-5.778 25.05-8.613 5.38-1.825 8.248-.122 10.333 5.986 2.088 6.115.883 9.016-4.69 10.95-8.5 2.949-17.027 5.818-25.535 8.743-1.696.583-3.358 1.266-5.57 2.106l11.247 32.763c11.659-3.979 22.804-7.781 33.949-11.588.63-.215 1.247-.471 1.874-.695 8.351-2.982 14.596 2.01 13.232 10.957-.284 1.864-2.265 4.34-4.025 4.974a2057 2057 0 0 1-50.548 17.44c-5.772 1.907-9.193-.263-11.376-6.539-6.348-18.25-12.593-36.538-18.993-55.19M864.942 965.883c4.603-.097 8.76-.378 12.894-.188 22.969 1.055 38.317 29.49 25.326 50.635-10.156 16.53-25.679 24.659-44.913 25.572-6.24.297-13.005-6.517-13.133-12.665-.085-4.094 2.68-5.35 6.172-5.71 4.79-.493 9.866-.165 14.294-1.703 5.69-1.977 11.341-4.82 16.13-8.45 5.766-4.37 6.995-11.207 4.67-17.058-2.696-6.788-7.93-9.698-14.919-9.402-6.139.26-12.25 1.128-18.386 1.53-5.14.336-10.332.85-15.442.476-14.277-1.046-23.812-8.846-28.655-22.073-4.797-13.105-.507-24.277 8.91-33.654 8.158-8.123 18.214-12.756 29.693-14.037 7.508-.837 14.207 4.522 15.056 11.986.435 3.828-1.925 5.395-5.337 5.78-3.962.446-8.235.032-11.828 1.41-5.152 1.977-10.583 4.42-14.512 8.13-7.07 6.673-3.762 18.457 5.823 20.246 6.847 1.277 14.157.131 21.258-.047 2.152-.054 4.295-.486 6.9-.778M568.236 969.125c16.163-.3 29.983 4.42 41.248 15.624 5.29 5.261 5.984 11.717 2.305 18.255-2.297 4.082-5.545 4.709-8.97 1.543-2.197-2.031-4.08-4.396-6.241-6.47-16.429-15.766-37.851-12.958-49.343 6.61-6.106 10.396-9.11 21.812-9.383 33.836-.552 24.314 18.094 38.54 41.637 31.891 3.042-.859 5.965-2.152 9.022-2.939 4.521-1.163 7.147 1.12 6.9 5.728-.475 8.888-3.293 12.463-11.872 15.057-21.287 6.438-47.376-1.706-59.224-18.65-7.203-10.301-9.222-22.022-8.33-34.28 1.294-17.805 6.13-34.42 17.777-48.435 8.834-10.63 20.132-16.708 34.474-17.77M877.604 915.642c-6.745 6.907-10.135 6.959-15.67.49-3.774-4.408-3.756-6.931.342-11.187a26724 26724 0 0 1 50.672-52.485c2.158-2.229 4.582-5.718 7.892-3.473 3.514 2.383 6.444 5.92 8.822 9.492.647.972-1.191 4.274-2.621 5.836-5.933 6.485-12.146 12.712-18.445 19.23 1.326 1.461 2.25 2.607 3.301 3.62 21.221 20.462 42.425 40.942 63.721 61.325 3.429 3.281 3.809 6.427.783 9.987-1.398 1.645-2.786 3.338-4.407 4.746-4.686 4.068-6.955 3.996-11.509-.388-21.237-20.445-42.44-40.925-63.663-61.386-.82-.79-1.707-1.507-2.2-1.94-5.71 5.409-11.237 10.644-17.018 16.133"/>
    <path fill="#020202"
          d="M811.96 554.016c9.092-16.902 20.92-30.497 38.96-37.514 9.297-3.615 19.03-4.865 28.95-4.063 17.767 1.437 30.511 10.715 38.922 26.04 9.515 17.337 13.02 36.23 13.23 55.802.29 26.893-5.58 52.264-20.026 75.185-10.581 16.79-24.62 29.197-44.933 32.947-25.08 4.63-45.087-4.541-57.636-26.79-9.666-17.139-13.157-35.912-13.104-55.285.064-23.106 4.732-45.303 15.637-66.322"/>
    <path fill="#6C6C6C"
          d="M496.038 289.986c-.42-9.425-.831-18.362-1.243-27.299l1.13-.712 30.33 34.597-29.119 11.678c-.39-6.372-.74-12.075-1.098-18.264"/>
    <path fill="#686868"
          d="M367.622 966.362c-23.989-3.709-35.01-27.649-22.202-47.594 6.375-9.927 14.416-18.342 24.302-24.828 18.718-12.279 36.34-5.941 46.877 12.295 4.189 7.251 3.986 15.222.399 22.637-7.484 15.47-18.88 27.442-34.479 34.79-4.306 2.03-9.631 1.896-14.897 2.7"/>
    <path fill="#6B6B6B"
          d="M487.161 955.77c11.684 7.723 13.573 16.15 5.957 25.533-3.555 4.38-8.373 6.735-13.695 5.123-6.861-2.077-13.369-5.321-20.297-8.173 1.028-2.367 1.47-3.6 2.077-4.746 4.274-8.063 8.582-16.109 13.136-24.642 4.41 2.366 8.462 4.54 12.822 6.904M985.319 744.447c4.68-12.478 11.481-16.252 21.736-12.434 6.505 2.422 10.467 7.094 9.997 13.958-.47 6.866-2.278 13.641-3.617 21.109-10.575-2.91-20.167-5.462-29.667-8.32-.804-.241-1.585-2.635-1.359-3.837.645-3.422 1.816-6.745 2.91-10.476"/>
    <path fill="#020202"
          d="M1028.206 376.394c15.425-18.132 28.212-38.044 39.573-58.916 2.05-3.766 9.649-6.738 15.13-5.505 4.646 1.046 5.212 4.949 5.7 8.923 8.131 66.335 16.297 132.666 24.477 198.996 5.827 47.259 11.687 94.514 17.53 141.772.246 1.99.51 3.979.682 5.976.37 4.285-1.867 6.573-5.873 7.238-3.122.518-6.283.798-9.945.93a52 52 0 0 1-4.329-4.893c-18.822-24.131-40.074-45.633-66.718-61.155-13.266-7.729-27.394-12.924-43.018-13.164-3.036-.046-4.329.668-4.714 4.034-.987 8.609-2.33 17.19-3.882 25.718-6.273 34.465-14.733 68.004-41.273 93.874-1.467 1.55-2.51 3.071-3.81 4.327-20.835 20.147-45.332 33.303-73.879 38.657a75008 75008 0 0 1-107.742 20.139c-2.443.454-4.297.737-4.364 4.105-.136 6.837-1.876 8.528-8.764 9.822a226226 226226 0 0 1-89.033 16.718 857200 857200 0 0 1-182.01 34.126c-5.376 1.008-7.657-.79-8.293-6.37-.124-1.09-.33-2.17-.551-3.6-20.732 3.49-41.11 6.922-61.886 10.236-4.348.502-8.296 1.133-12.249 1.738-18.088 2.77-35.998 6.5-54.584 4.743-44.233-4.183-74.92-27.09-92.444-67.347-14.206-32.637-17.9-67.239-15.177-102.557 2.173-28.177 11.556-53.72 28.617-76.343.722-.956 1.096-2.175 1.821-3.658-1.471 0-2.307-.124-3.094.019-12.785 2.324-25.574 4.626-38.34 7.047-13.735 2.604-27.447 5.326-41.168 7.996-6.238 1.132-12.47 2.295-18.715 3.385-4.605.805-7.413-1.078-8.16-5.72a1781 1781 0 0 1-4.587-30.244c-.626-4.373 1.49-6.959 6.373-7.84a1470 1470 0 0 1 30.874-5.215c4.896-.67 9-1.337 13.096-2.053 39.49-6.897 78.987-13.758 118.463-20.733 12.062-2.131 24.068-4.583 36.523-6.908 36.834-6.523 73.245-13.027 109.82-19.56 0-2.363.011-4.177-.002-5.99-.063-8.638 1.097-10.021 9.516-11.515 7.884-1.399 15.782-2.737 23.618-4.37 1.381-.288 3.524-1.855 3.561-2.894.293-8.279.164-16.573.164-25.414l-28.42 5.055c0-8.618.094-16.59-.033-24.558-.084-5.295 1.909-8.08 7.188-9.045q34.461-6.293 68.939-12.504c4.812-.867 7.353 1.08 7.536 5.92.266 7.012.234 14.035.52 21.046.116 2.86-.753 4.175-3.745 4.624-6.925 1.04-13.81 2.378-20.672 3.785-1.223.251-3.214 1.393-3.235 2.167-.233 8.58-.147 17.17-.147 26.13 21.528-3.911 42.037-7.603 62.516-11.458 1.043-.196 2.583-1.775 2.607-2.743.208-8.285.12-16.578.12-25.398l-28.262 4.988c0-8.878.07-17.184-.028-25.488-.054-4.658 2.306-7.19 6.625-7.98 23.301-4.265 46.61-8.492 69.928-12.658 4.143-.74 6.942 1.411 7.087 5.551.258 7.348.39 14.71.167 22.054-.04 1.335-1.806 3.425-3.138 3.772-4.992 1.301-10.124 2.075-15.22 2.952-9.122 1.569-9.125 1.54-9.12 10.808.003 6.064 0 12.129 0 18.64l64.296-11.716v-27.715l-27.937 4.99c0-8.925.063-17.212-.025-25.498-.05-4.64 2.29-7.2 6.616-7.995 23.134-4.25 46.274-8.472 69.428-12.611 5.047-.902 7.613 1.284 7.739 6.422.167 6.85.023 13.71.258 20.556.098 2.873-.718 4.233-3.713 4.609-4.296.538-8.537 1.517-12.803 2.302-11.134 2.048-11.134 2.047-11.13 13.099v16.681c10.258-1.88 19.43-3.587 28.615-5.233 6.172-1.106 8.337.626 8.7 6.813l.424 7.224c15.846-2.796 31.275-5.5 46.697-8.244 27.917-4.965 55.831-9.953 84.15-14.831 4.999-.654 9.61-1.317 14.183-2.18 14.534-2.742 29.358-4.5 43.515-8.575 26.806-7.714 48.089-24.636 67.3-44.26 5.543-5.661 10.38-12.016 15.54-18.053M961.85 524.111c-14.151-27.488-35.311-46.074-66.56-50.64-47.156-6.89-97.758 18.36-121.253 59.82-11.88 20.965-18.557 43.604-20.987 67.475-2.988 29.36-.895 58.203 11.659 85.377 12.963 28.062 33.383 48.459 64.473 54.23 42.883 7.96 79.88-5.082 109.987-36.446 20.596-21.455 30.752-48.244 35.297-77.206 5.504-35.07 3.018-69.316-12.616-102.61M554.61 637.758c-3.104 26.995-.96 53.453 8.61 79.024 16.2 43.295 52.132 67.612 98.04 63.576 26.493-2.33 52.653-8.536 78.927-13.196 4.701-.834 6.15-4.706 6.113-9.135-.07-8.19-.097-16.384-.29-24.572-.109-4.638-2.062-6.138-6.784-5.553-1.488.185-2.963.492-4.439.768-19.684 3.672-39.33 7.566-59.06 10.976-34.437 5.952-59.646-8.92-71.224-41.913-7.641-21.775-9.111-44.119-4.915-66.773 8.141-43.95 37.02-72.994 80.814-81.576 18.831-3.69 37.651-7.435 56.468-11.2 7.843-1.568 9.162-3.218 9.172-11.055.008-6.857.017-13.714-.002-20.571-.02-7.204-1.588-8.508-8.793-7.186a40108 40108 0 0 0-61.538 11.346c-18.207 3.368-35.58 9.166-51.415 18.88-40.17 24.644-62.6 60.947-69.684 108.16M326.89 828.217c15.112 5.147 30.73 7.04 46.406 4.64 24.228-3.71 48.303-8.42 72.43-12.774 4.64-.837 6.736-3.91 6.72-8.571-.027-7.524.002-15.047-.006-22.571-.01-8.226-1.483-9.398-9.523-7.917-21.653 3.989-43.237 8.452-64.995 11.755-28.656 4.35-50.88-7.397-63.18-33.277-12.05-25.36-14.172-52.187-8.004-79.35 9.63-42.417 35.552-68.945 78.548-77.773 19.607-4.025 39.266-7.795 58.9-11.69 6.255-1.24 8.202-3.538 8.242-9.884q.072-11.034.001-22.07c-.04-6.463-1.926-7.968-8.374-6.779-19.686 3.63-39.34 7.443-59.06 10.876-34.294 5.97-64.435 20.068-87.41 46.734-39.2 45.495-46.568 97.852-29.896 154.16 9.001 30.4 27.91 52.926 59.202 64.49m156.886-187.833v31.082c0 45.12-.006 90.239.006 135.358.002 7.005 1.599 8.31 8.425 7.016 8.682-1.646 17.373-3.249 26.04-4.976 6.052-1.206 7.896-3.462 7.897-9.593q.025-126.082 0-252.166c-.002-6.172-1.827-7.722-8.057-6.626-8.538 1.503-17.041 3.199-25.55 4.86-7.406 1.446-8.757 3.135-8.759 10.822-.006 27.74-.002 55.48-.002 84.223z"/>
</svg>
